%TF.GenerationSoftware,KiCad,Pcbnew,(6.0.11)*%
%TF.CreationDate,2024-03-01T18:21:46+00:00*%
%TF.ProjectId,BT66B_RJ45_JB,42543636-425f-4524-9a34-355f4a422e6b,rev?*%
%TF.SameCoordinates,Original*%
%TF.FileFunction,Legend,Bot*%
%TF.FilePolarity,Positive*%
%FSLAX46Y46*%
G04 Gerber Fmt 4.6, Leading zero omitted, Abs format (unit mm)*
G04 Created by KiCad (PCBNEW (6.0.11)) date 2024-03-01 18:21:46*
%MOMM*%
%LPD*%
G01*
G04 APERTURE LIST*
%ADD10C,0.400000*%
%ADD11C,2.350000*%
G04 APERTURE END LIST*
D10*
X180017281Y-115454761D02*
X180017281Y-113454761D01*
X179160138Y-115454761D02*
X179160138Y-114407142D01*
X179255376Y-114216666D01*
X179445853Y-114121428D01*
X179731567Y-114121428D01*
X179922043Y-114216666D01*
X180017281Y-114311904D01*
X178493472Y-114121428D02*
X177731567Y-114121428D01*
X178207757Y-113454761D02*
X178207757Y-115169047D01*
X178112519Y-115359523D01*
X177922043Y-115454761D01*
X177731567Y-115454761D01*
X177350615Y-114121428D02*
X176588710Y-114121428D01*
X177064900Y-113454761D02*
X177064900Y-115169047D01*
X176969662Y-115359523D01*
X176779186Y-115454761D01*
X176588710Y-115454761D01*
X175922043Y-114121428D02*
X175922043Y-116121428D01*
X175922043Y-114216666D02*
X175731567Y-114121428D01*
X175350615Y-114121428D01*
X175160138Y-114216666D01*
X175064900Y-114311904D01*
X174969662Y-114502380D01*
X174969662Y-115073809D01*
X175064900Y-115264285D01*
X175160138Y-115359523D01*
X175350615Y-115454761D01*
X175731567Y-115454761D01*
X175922043Y-115359523D01*
X174207757Y-115359523D02*
X174017281Y-115454761D01*
X173636329Y-115454761D01*
X173445853Y-115359523D01*
X173350615Y-115169047D01*
X173350615Y-115073809D01*
X173445853Y-114883333D01*
X173636329Y-114788095D01*
X173922043Y-114788095D01*
X174112519Y-114692857D01*
X174207757Y-114502380D01*
X174207757Y-114407142D01*
X174112519Y-114216666D01*
X173922043Y-114121428D01*
X173636329Y-114121428D01*
X173445853Y-114216666D01*
X172493472Y-115264285D02*
X172398234Y-115359523D01*
X172493472Y-115454761D01*
X172588710Y-115359523D01*
X172493472Y-115264285D01*
X172493472Y-115454761D01*
X172493472Y-114216666D02*
X172398234Y-114311904D01*
X172493472Y-114407142D01*
X172588710Y-114311904D01*
X172493472Y-114216666D01*
X172493472Y-114407142D01*
X170112519Y-113359523D02*
X171826805Y-115930952D01*
X168017281Y-113359523D02*
X169731567Y-115930952D01*
X166493472Y-114121428D02*
X166493472Y-115740476D01*
X166588710Y-115930952D01*
X166683948Y-116026190D01*
X166874424Y-116121428D01*
X167160138Y-116121428D01*
X167350615Y-116026190D01*
X166493472Y-115359523D02*
X166683948Y-115454761D01*
X167064900Y-115454761D01*
X167255376Y-115359523D01*
X167350615Y-115264285D01*
X167445853Y-115073809D01*
X167445853Y-114502380D01*
X167350615Y-114311904D01*
X167255376Y-114216666D01*
X167064900Y-114121428D01*
X166683948Y-114121428D01*
X166493472Y-114216666D01*
X165541091Y-115454761D02*
X165541091Y-114121428D01*
X165541091Y-113454761D02*
X165636329Y-113550000D01*
X165541091Y-113645238D01*
X165445853Y-113550000D01*
X165541091Y-113454761D01*
X165541091Y-113645238D01*
X164874424Y-114121428D02*
X164112519Y-114121428D01*
X164588710Y-113454761D02*
X164588710Y-115169047D01*
X164493472Y-115359523D01*
X164302995Y-115454761D01*
X164112519Y-115454761D01*
X163445853Y-115454761D02*
X163445853Y-113454761D01*
X162588710Y-115454761D02*
X162588710Y-114407142D01*
X162683948Y-114216666D01*
X162874424Y-114121428D01*
X163160138Y-114121428D01*
X163350615Y-114216666D01*
X163445853Y-114311904D01*
X160779186Y-114121428D02*
X160779186Y-115454761D01*
X161636329Y-114121428D02*
X161636329Y-115169047D01*
X161541091Y-115359523D01*
X161350615Y-115454761D01*
X161064900Y-115454761D01*
X160874424Y-115359523D01*
X160779186Y-115264285D01*
X159826805Y-115454761D02*
X159826805Y-113454761D01*
X159826805Y-114216666D02*
X159636329Y-114121428D01*
X159255376Y-114121428D01*
X159064900Y-114216666D01*
X158969662Y-114311904D01*
X158874424Y-114502380D01*
X158874424Y-115073809D01*
X158969662Y-115264285D01*
X159064900Y-115359523D01*
X159255376Y-115454761D01*
X159636329Y-115454761D01*
X159826805Y-115359523D01*
X158017281Y-115264285D02*
X157922043Y-115359523D01*
X158017281Y-115454761D01*
X158112519Y-115359523D01*
X158017281Y-115264285D01*
X158017281Y-115454761D01*
X156207757Y-115359523D02*
X156398234Y-115454761D01*
X156779186Y-115454761D01*
X156969662Y-115359523D01*
X157064900Y-115264285D01*
X157160138Y-115073809D01*
X157160138Y-114502380D01*
X157064900Y-114311904D01*
X156969662Y-114216666D01*
X156779186Y-114121428D01*
X156398234Y-114121428D01*
X156207757Y-114216666D01*
X155064900Y-115454761D02*
X155255376Y-115359523D01*
X155350615Y-115264285D01*
X155445853Y-115073809D01*
X155445853Y-114502380D01*
X155350615Y-114311904D01*
X155255376Y-114216666D01*
X155064900Y-114121428D01*
X154779186Y-114121428D01*
X154588710Y-114216666D01*
X154493472Y-114311904D01*
X154398234Y-114502380D01*
X154398234Y-115073809D01*
X154493472Y-115264285D01*
X154588710Y-115359523D01*
X154779186Y-115454761D01*
X155064900Y-115454761D01*
X153541091Y-115454761D02*
X153541091Y-114121428D01*
X153541091Y-114311904D02*
X153445853Y-114216666D01*
X153255376Y-114121428D01*
X152969662Y-114121428D01*
X152779186Y-114216666D01*
X152683948Y-114407142D01*
X152683948Y-115454761D01*
X152683948Y-114407142D02*
X152588710Y-114216666D01*
X152398234Y-114121428D01*
X152112519Y-114121428D01*
X151922043Y-114216666D01*
X151826805Y-114407142D01*
X151826805Y-115454761D01*
X149445853Y-113359523D02*
X151160138Y-115930952D01*
X147922043Y-115359523D02*
X148112519Y-115454761D01*
X148493472Y-115454761D01*
X148683948Y-115359523D01*
X148779186Y-115264285D01*
X148874424Y-115073809D01*
X148874424Y-114502380D01*
X148779186Y-114311904D01*
X148683948Y-114216666D01*
X148493472Y-114121428D01*
X148112519Y-114121428D01*
X147922043Y-114216666D01*
X146207757Y-114121428D02*
X146207757Y-115454761D01*
X147064900Y-114121428D02*
X147064900Y-115169047D01*
X146969662Y-115359523D01*
X146779186Y-115454761D01*
X146493472Y-115454761D01*
X146302996Y-115359523D01*
X146207757Y-115264285D01*
X145255376Y-114692857D02*
X143731567Y-114692857D01*
X143064900Y-114121428D02*
X142302996Y-114121428D01*
X142779186Y-113454761D02*
X142779186Y-115169047D01*
X142683948Y-115359523D01*
X142493472Y-115454761D01*
X142302996Y-115454761D01*
X140874424Y-115359523D02*
X141064900Y-115454761D01*
X141445853Y-115454761D01*
X141636329Y-115359523D01*
X141731567Y-115169047D01*
X141731567Y-114407142D01*
X141636329Y-114216666D01*
X141445853Y-114121428D01*
X141064900Y-114121428D01*
X140874424Y-114216666D01*
X140779186Y-114407142D01*
X140779186Y-114597619D01*
X141731567Y-114788095D01*
X139636329Y-115454761D02*
X139826805Y-115359523D01*
X139922043Y-115169047D01*
X139922043Y-113454761D01*
X138112519Y-115359523D02*
X138302996Y-115454761D01*
X138683948Y-115454761D01*
X138874424Y-115359523D01*
X138969662Y-115169047D01*
X138969662Y-114407142D01*
X138874424Y-114216666D01*
X138683948Y-114121428D01*
X138302996Y-114121428D01*
X138112519Y-114216666D01*
X138017281Y-114407142D01*
X138017281Y-114597619D01*
X138969662Y-114788095D01*
X136302996Y-115359523D02*
X136493472Y-115454761D01*
X136874424Y-115454761D01*
X137064900Y-115359523D01*
X137160138Y-115264285D01*
X137255376Y-115073809D01*
X137255376Y-114502380D01*
X137160138Y-114311904D01*
X137064900Y-114216666D01*
X136874424Y-114121428D01*
X136493472Y-114121428D01*
X136302996Y-114216666D01*
X135160138Y-115454761D02*
X135350615Y-115359523D01*
X135445853Y-115264285D01*
X135541091Y-115073809D01*
X135541091Y-114502380D01*
X135445853Y-114311904D01*
X135350615Y-114216666D01*
X135160138Y-114121428D01*
X134874424Y-114121428D01*
X134683948Y-114216666D01*
X134588710Y-114311904D01*
X134493472Y-114502380D01*
X134493472Y-115073809D01*
X134588710Y-115264285D01*
X134683948Y-115359523D01*
X134874424Y-115454761D01*
X135160138Y-115454761D01*
X133636329Y-115454761D02*
X133636329Y-114121428D01*
X133636329Y-114311904D02*
X133541091Y-114216666D01*
X133350615Y-114121428D01*
X133064900Y-114121428D01*
X132874424Y-114216666D01*
X132779186Y-114407142D01*
X132779186Y-115454761D01*
X132779186Y-114407142D02*
X132683948Y-114216666D01*
X132493472Y-114121428D01*
X132207757Y-114121428D01*
X132017281Y-114216666D01*
X131922043Y-114407142D01*
X131922043Y-115454761D01*
X129541091Y-113359523D02*
X131255376Y-115930952D01*
X128207757Y-114407142D02*
X127922043Y-114502380D01*
X127826805Y-114597619D01*
X127731567Y-114788095D01*
X127731567Y-115073809D01*
X127826805Y-115264285D01*
X127922043Y-115359523D01*
X128112519Y-115454761D01*
X128874424Y-115454761D01*
X128874424Y-113454761D01*
X128207757Y-113454761D01*
X128017281Y-113550000D01*
X127922043Y-113645238D01*
X127826805Y-113835714D01*
X127826805Y-114026190D01*
X127922043Y-114216666D01*
X128017281Y-114311904D01*
X128207757Y-114407142D01*
X128874424Y-114407142D01*
X127160138Y-113454761D02*
X126017281Y-113454761D01*
X126588710Y-115454761D02*
X126588710Y-113454761D01*
X124493472Y-113454761D02*
X124874424Y-113454761D01*
X125064900Y-113550000D01*
X125160138Y-113645238D01*
X125350615Y-113930952D01*
X125445853Y-114311904D01*
X125445853Y-115073809D01*
X125350615Y-115264285D01*
X125255376Y-115359523D01*
X125064900Y-115454761D01*
X124683948Y-115454761D01*
X124493472Y-115359523D01*
X124398234Y-115264285D01*
X124302996Y-115073809D01*
X124302996Y-114597619D01*
X124398234Y-114407142D01*
X124493472Y-114311904D01*
X124683948Y-114216666D01*
X125064900Y-114216666D01*
X125255376Y-114311904D01*
X125350615Y-114407142D01*
X125445853Y-114597619D01*
X122588710Y-113454761D02*
X122969662Y-113454761D01*
X123160138Y-113550000D01*
X123255376Y-113645238D01*
X123445853Y-113930952D01*
X123541091Y-114311904D01*
X123541091Y-115073809D01*
X123445853Y-115264285D01*
X123350615Y-115359523D01*
X123160138Y-115454761D01*
X122779186Y-115454761D01*
X122588710Y-115359523D01*
X122493472Y-115264285D01*
X122398234Y-115073809D01*
X122398234Y-114597619D01*
X122493472Y-114407142D01*
X122588710Y-114311904D01*
X122779186Y-114216666D01*
X123160138Y-114216666D01*
X123350615Y-114311904D01*
X123445853Y-114407142D01*
X123541091Y-114597619D01*
X120874424Y-114407142D02*
X120588710Y-114502380D01*
X120493472Y-114597619D01*
X120398234Y-114788095D01*
X120398234Y-115073809D01*
X120493472Y-115264285D01*
X120588710Y-115359523D01*
X120779186Y-115454761D01*
X121541091Y-115454761D01*
X121541091Y-113454761D01*
X120874424Y-113454761D01*
X120683948Y-113550000D01*
X120588710Y-113645238D01*
X120493472Y-113835714D01*
X120493472Y-114026190D01*
X120588710Y-114216666D01*
X120683948Y-114311904D01*
X120874424Y-114407142D01*
X121541091Y-114407142D01*
X120017281Y-115645238D02*
X118493472Y-115645238D01*
X116874424Y-115454761D02*
X117541091Y-114502380D01*
X118017281Y-115454761D02*
X118017281Y-113454761D01*
X117255376Y-113454761D01*
X117064900Y-113550000D01*
X116969662Y-113645238D01*
X116874424Y-113835714D01*
X116874424Y-114121428D01*
X116969662Y-114311904D01*
X117064900Y-114407142D01*
X117255376Y-114502380D01*
X118017281Y-114502380D01*
X115445853Y-113454761D02*
X115445853Y-114883333D01*
X115541091Y-115169047D01*
X115731567Y-115359523D01*
X116017281Y-115454761D01*
X116207757Y-115454761D01*
X113636329Y-114121428D02*
X113636329Y-115454761D01*
X114112519Y-113359523D02*
X114588710Y-114788095D01*
X113350615Y-114788095D01*
X111636329Y-113454761D02*
X112588710Y-113454761D01*
X112683948Y-114407142D01*
X112588710Y-114311904D01*
X112398234Y-114216666D01*
X111922043Y-114216666D01*
X111731567Y-114311904D01*
X111636329Y-114407142D01*
X111541091Y-114597619D01*
X111541091Y-115073809D01*
X111636329Y-115264285D01*
X111731567Y-115359523D01*
X111922043Y-115454761D01*
X112398234Y-115454761D01*
X112588710Y-115359523D01*
X112683948Y-115264285D01*
X111160138Y-115645238D02*
X109636329Y-115645238D01*
X108588710Y-113454761D02*
X108588710Y-114883333D01*
X108683948Y-115169047D01*
X108874424Y-115359523D01*
X109160138Y-115454761D01*
X109350615Y-115454761D01*
X106969662Y-114407142D02*
X106683948Y-114502380D01*
X106588710Y-114597619D01*
X106493472Y-114788095D01*
X106493472Y-115073809D01*
X106588710Y-115264285D01*
X106683948Y-115359523D01*
X106874424Y-115454761D01*
X107636329Y-115454761D01*
X107636329Y-113454761D01*
X106969662Y-113454761D01*
X106779186Y-113550000D01*
X106683948Y-113645238D01*
X106588710Y-113835714D01*
X106588710Y-114026190D01*
X106683948Y-114216666D01*
X106779186Y-114311904D01*
X106969662Y-114407142D01*
X107636329Y-114407142D01*
X146160138Y-117341428D02*
X145683948Y-118674761D01*
X145207757Y-117341428D01*
X144064900Y-116674761D02*
X143874424Y-116674761D01*
X143683948Y-116770000D01*
X143588710Y-116865238D01*
X143493472Y-117055714D01*
X143398234Y-117436666D01*
X143398234Y-117912857D01*
X143493472Y-118293809D01*
X143588710Y-118484285D01*
X143683948Y-118579523D01*
X143874424Y-118674761D01*
X144064900Y-118674761D01*
X144255376Y-118579523D01*
X144350615Y-118484285D01*
X144445853Y-118293809D01*
X144541091Y-117912857D01*
X144541091Y-117436666D01*
X144445853Y-117055714D01*
X144350615Y-116865238D01*
X144255376Y-116770000D01*
X144064900Y-116674761D01*
X142541091Y-118484285D02*
X142445853Y-118579523D01*
X142541091Y-118674761D01*
X142636329Y-118579523D01*
X142541091Y-118484285D01*
X142541091Y-118674761D01*
X140541091Y-118674761D02*
X141683948Y-118674761D01*
X141112519Y-118674761D02*
X141112519Y-116674761D01*
X141302996Y-116960476D01*
X141493472Y-117150952D01*
X141683948Y-117246190D01*
D11*
%TO.C,J1*%
X98860000Y-103740000D03*
X113860000Y-103740000D03*
%TD*%
%TO.C,J5*%
X120338000Y-80876000D03*
X120338000Y-95876000D03*
%TD*%
%TO.C,J3*%
X160360000Y-103740000D03*
X145360000Y-103740000D03*
%TD*%
%TO.C,J4*%
X172860000Y-103740000D03*
X187860000Y-103740000D03*
%TD*%
%TO.C,J2*%
X126360000Y-103740000D03*
X141360000Y-103740000D03*
%TD*%
M02*
