M48
; DRILL file {KiCad (6.0.11)} date Wed Apr 24 22:29:17 2024
; FORMAT={-:-/ absolute / metric / decimal}
; #@! TF.CreationDate,2024-04-24T22:29:17+01:00
; #@! TF.GenerationSoftware,Kicad,Pcbnew,(6.0.11)
; #@! TF.FileFunction,Plated,1,2,PTH
FMAT,2
METRIC
; #@! TA.AperFunction,Plated,PTH,ViaDrill
T1C0.400
; #@! TA.AperFunction,Plated,PTH,ComponentDrill
T2C0.900
%
G90
G05
T1
X117.245Y-95.225
X119.26Y-93.21
X122.29Y-89.85
X122.73Y-95.35
X125.72Y-92.0
T2
X102.79Y-98.9
X103.81Y-101.44
X104.83Y-98.9
X105.85Y-101.44
X106.87Y-98.9
X107.89Y-101.44
X108.91Y-98.9
X109.93Y-101.44
X115.498Y-85.826
X115.498Y-87.866
X115.498Y-89.906
X115.498Y-91.946
X118.038Y-84.806
X118.038Y-86.846
X118.038Y-88.886
X118.038Y-90.926
X130.29Y-98.9
X131.31Y-101.44
X132.33Y-98.9
X133.35Y-101.44
X134.37Y-98.9
X135.39Y-101.44
X136.41Y-98.9
X137.43Y-101.44
X149.29Y-98.9
X150.31Y-101.44
X151.33Y-98.9
X152.35Y-101.44
X153.37Y-98.9
X154.39Y-101.44
X155.41Y-98.9
X156.43Y-101.44
X176.79Y-98.9
X177.81Y-101.44
X178.83Y-98.9
X179.85Y-101.44
X180.87Y-98.9
X181.89Y-101.44
X182.91Y-98.9
X183.93Y-101.44
T0
M30
