%TF.GenerationSoftware,KiCad,Pcbnew,(6.0.11)*%
%TF.CreationDate,2024-04-24T22:29:15+01:00*%
%TF.ProjectId,BT66B_RJ45_JB,42543636-425f-4524-9a34-355f4a422e6b,rev?*%
%TF.SameCoordinates,Original*%
%TF.FileFunction,Copper,L2,Bot*%
%TF.FilePolarity,Positive*%
%FSLAX46Y46*%
G04 Gerber Fmt 4.6, Leading zero omitted, Abs format (unit mm)*
G04 Created by KiCad (PCBNEW (6.0.11)) date 2024-04-24 22:29:15*
%MOMM*%
%LPD*%
G01*
G04 APERTURE LIST*
%TA.AperFunction,ComponentPad*%
%ADD10C,1.500000*%
%TD*%
%TA.AperFunction,ViaPad*%
%ADD11C,0.800000*%
%TD*%
%TA.AperFunction,Conductor*%
%ADD12C,0.300000*%
%TD*%
G04 APERTURE END LIST*
D10*
%TO.P,J5,1*%
%TO.N,/L3+*%
X118038000Y-84806000D03*
%TO.P,J5,2*%
%TO.N,/L3-*%
X115498000Y-85826000D03*
%TO.P,J5,3*%
%TO.N,/L2+*%
X118038000Y-86846000D03*
%TO.P,J5,4*%
%TO.N,/L1-*%
X115498000Y-87866000D03*
%TO.P,J5,5*%
%TO.N,/L1+*%
X118038000Y-88886000D03*
%TO.P,J5,6*%
%TO.N,/L2-*%
X115498000Y-89906000D03*
%TO.P,J5,7*%
%TO.N,/L4+*%
X118038000Y-90926000D03*
%TO.P,J5,8*%
%TO.N,/L4-*%
X115498000Y-91946000D03*
%TD*%
%TO.P,J1,1*%
%TO.N,unconnected-(J1-Pad1)*%
X109930000Y-101440000D03*
%TO.P,J1,2*%
%TO.N,unconnected-(J1-Pad2)*%
X108910000Y-98900000D03*
%TO.P,J1,3*%
%TO.N,unconnected-(J1-Pad3)*%
X107890000Y-101440000D03*
%TO.P,J1,4*%
%TO.N,/L1-*%
X106870000Y-98900000D03*
%TO.P,J1,5*%
%TO.N,/L1+*%
X105850000Y-101440000D03*
%TO.P,J1,6*%
%TO.N,unconnected-(J1-Pad6)*%
X104830000Y-98900000D03*
%TO.P,J1,7*%
%TO.N,unconnected-(J1-Pad7)*%
X103810000Y-101440000D03*
%TO.P,J1,8*%
%TO.N,unconnected-(J1-Pad8)*%
X102790000Y-98900000D03*
%TD*%
%TO.P,J2,1*%
%TO.N,unconnected-(J2-Pad1)*%
X137430000Y-101440000D03*
%TO.P,J2,2*%
%TO.N,unconnected-(J2-Pad2)*%
X136410000Y-98900000D03*
%TO.P,J2,3*%
%TO.N,unconnected-(J2-Pad3)*%
X135390000Y-101440000D03*
%TO.P,J2,4*%
%TO.N,/L2-*%
X134370000Y-98900000D03*
%TO.P,J2,5*%
%TO.N,/L2+*%
X133350000Y-101440000D03*
%TO.P,J2,6*%
%TO.N,unconnected-(J2-Pad6)*%
X132330000Y-98900000D03*
%TO.P,J2,7*%
%TO.N,unconnected-(J2-Pad7)*%
X131310000Y-101440000D03*
%TO.P,J2,8*%
%TO.N,unconnected-(J2-Pad8)*%
X130290000Y-98900000D03*
%TD*%
%TO.P,J3,1*%
%TO.N,unconnected-(J3-Pad1)*%
X156430000Y-101440000D03*
%TO.P,J3,2*%
%TO.N,unconnected-(J3-Pad2)*%
X155410000Y-98900000D03*
%TO.P,J3,3*%
%TO.N,unconnected-(J3-Pad3)*%
X154390000Y-101440000D03*
%TO.P,J3,4*%
%TO.N,/L3-*%
X153370000Y-98900000D03*
%TO.P,J3,5*%
%TO.N,/L3+*%
X152350000Y-101440000D03*
%TO.P,J3,6*%
%TO.N,unconnected-(J3-Pad6)*%
X151330000Y-98900000D03*
%TO.P,J3,7*%
%TO.N,unconnected-(J3-Pad7)*%
X150310000Y-101440000D03*
%TO.P,J3,8*%
%TO.N,unconnected-(J3-Pad8)*%
X149290000Y-98900000D03*
%TD*%
%TO.P,J4,1*%
%TO.N,unconnected-(J4-Pad1)*%
X183930000Y-101440000D03*
%TO.P,J4,2*%
%TO.N,unconnected-(J4-Pad2)*%
X182910000Y-98900000D03*
%TO.P,J4,3*%
%TO.N,unconnected-(J4-Pad3)*%
X181890000Y-101440000D03*
%TO.P,J4,4*%
%TO.N,/L4-*%
X180870000Y-98900000D03*
%TO.P,J4,5*%
%TO.N,/L4+*%
X179850000Y-101440000D03*
%TO.P,J4,6*%
%TO.N,unconnected-(J4-Pad6)*%
X178830000Y-98900000D03*
%TO.P,J4,7*%
%TO.N,unconnected-(J4-Pad7)*%
X177810000Y-101440000D03*
%TO.P,J4,8*%
%TO.N,unconnected-(J4-Pad8)*%
X176790000Y-98900000D03*
%TD*%
D11*
%TO.N,/L4-*%
X122730000Y-95350000D03*
%TO.N,/L1+*%
X117244503Y-95225499D03*
X119260000Y-93210000D03*
%TO.N,/L2+*%
X125720000Y-92000000D03*
%TO.N,/L4+*%
X122290000Y-89850000D03*
%TD*%
D12*
%TO.N,/L4+*%
X138832284Y-93501060D02*
X138588803Y-93744540D01*
X138345325Y-94836550D02*
X138345327Y-94836551D01*
X140529350Y-95198126D02*
X139618123Y-96109348D01*
X141377883Y-96046659D02*
X140466656Y-96957881D01*
X140042391Y-96533616D02*
X140042393Y-96533617D01*
X142226416Y-96895192D02*
X141315189Y-97806414D01*
X142226416Y-96895191D02*
X142226416Y-96895192D01*
X140890926Y-97382150D02*
X141802148Y-96470923D01*
X143074949Y-97743724D02*
X143074949Y-97743725D01*
X142587989Y-99079214D02*
X143499214Y-98167989D01*
X143255734Y-99259999D02*
X143012254Y-99503480D01*
X141377883Y-96046658D02*
X141377883Y-96046659D01*
X143255735Y-99259999D02*
X143255734Y-99259999D01*
X151970000Y-107550000D02*
X143680000Y-99260000D01*
X179850000Y-102620000D02*
X174920000Y-107550000D01*
X179850000Y-101440000D02*
X179850000Y-102620000D01*
X138164540Y-93744539D02*
G75*
G03*
X138588802Y-93744539I212131J212131D01*
G01*
X139680817Y-94349593D02*
X138769590Y-95260815D01*
X138832268Y-93501043D02*
G75*
G02*
X139256549Y-93501060I212132J-212157D01*
G01*
X139256541Y-93501068D02*
G75*
G02*
X139256549Y-93925324I-212141J-212132D01*
G01*
X140042393Y-96533617D02*
X140953615Y-95622390D01*
X138345343Y-94836568D02*
G75*
G03*
X138345326Y-95260815I212157J-212132D01*
G01*
X138345327Y-95260814D02*
G75*
G03*
X138769589Y-95260814I212131J212131D01*
G01*
X139680768Y-94349543D02*
G75*
G02*
X140105082Y-94349593I212132J-212157D01*
G01*
X140105107Y-94349568D02*
G75*
G02*
X140105082Y-94773857I-212107J-212132D01*
G01*
X139193843Y-95685068D02*
G75*
G03*
X139193859Y-96109348I212157J-212132D01*
G01*
X143074949Y-97743725D02*
X142163722Y-98654947D01*
X139193860Y-96109347D02*
G75*
G03*
X139618122Y-96109347I212131J212131D01*
G01*
X174920000Y-107550000D02*
X151970000Y-107550000D01*
X140529368Y-95198143D02*
G75*
G02*
X140953615Y-95198126I212132J-212157D01*
G01*
X139193860Y-95685084D02*
X140105082Y-94773857D01*
X140953573Y-95198168D02*
G75*
G02*
X140953615Y-95622390I-212073J-212132D01*
G01*
X140042343Y-96533568D02*
G75*
G03*
X140042392Y-96957881I212157J-212132D01*
G01*
X140042393Y-96957880D02*
G75*
G03*
X140466655Y-96957880I212131J212131D01*
G01*
X138164539Y-93744540D02*
X134270000Y-89850000D01*
X141377868Y-96046643D02*
G75*
G02*
X141802148Y-96046659I212132J-212157D01*
G01*
X140890924Y-97382149D02*
X140890926Y-97382150D01*
X141802138Y-96046669D02*
G75*
G02*
X141802147Y-96470922I-212138J-212131D01*
G01*
X139193858Y-95685083D02*
X139193860Y-95685084D01*
X140890943Y-97382168D02*
G75*
G03*
X140890925Y-97806414I212157J-212132D01*
G01*
X140529350Y-95198125D02*
X140529350Y-95198126D01*
X134270000Y-89850000D02*
X122290000Y-89850000D01*
X140890926Y-97806413D02*
G75*
G03*
X141315188Y-97806413I212131J212131D01*
G01*
X141739459Y-98230683D02*
X142650681Y-97319456D01*
X138832284Y-93501059D02*
X138832284Y-93501060D01*
X142226368Y-96895143D02*
G75*
G02*
X142650681Y-96895192I212132J-212157D01*
G01*
X141739443Y-98230668D02*
G75*
G03*
X141739458Y-98654947I212157J-212132D01*
G01*
X141739459Y-98654946D02*
G75*
G03*
X142163721Y-98654946I212131J212131D01*
G01*
X143074968Y-97743743D02*
G75*
G02*
X143499214Y-97743725I212132J-212157D01*
G01*
X141739457Y-98230682D02*
X141739459Y-98230683D01*
X143499170Y-97743769D02*
G75*
G02*
X143499213Y-98167988I-212070J-212131D01*
G01*
X142587989Y-99079215D02*
X142587989Y-99079214D01*
X142587942Y-99079168D02*
G75*
G03*
X142587990Y-99503480I212158J-212132D01*
G01*
X142587991Y-99503479D02*
G75*
G03*
X143012253Y-99503479I212131J212131D01*
G01*
X143255769Y-99260032D02*
G75*
G02*
X143680000Y-99260000I212131J-212068D01*
G01*
X139680817Y-94349592D02*
X139680817Y-94349593D01*
X142650705Y-96895168D02*
G75*
G02*
X142650681Y-97319456I-212205J-212132D01*
G01*
X138345327Y-94836551D02*
X139256549Y-93925324D01*
%TO.N,/L4-*%
X186459999Y-99089999D02*
X186459999Y-104670001D01*
X182250000Y-108880000D02*
X136260000Y-108880000D01*
X184850000Y-97480000D02*
X186459999Y-99089999D01*
X180870000Y-98780000D02*
X182170000Y-97480000D01*
X186459999Y-104670001D02*
X182250000Y-108880000D01*
X180870000Y-98900000D02*
X180870000Y-98780000D01*
X182170000Y-97480000D02*
X184850000Y-97480000D01*
X136260000Y-108880000D02*
X122730000Y-95350000D01*
%TO.N,/L1+*%
X107580000Y-103170000D02*
X110860000Y-103170000D01*
X110860000Y-103170000D02*
X117244503Y-96785497D01*
X105850000Y-101440000D02*
X107580000Y-103170000D01*
X117244503Y-96785497D02*
X117244503Y-95225499D01*
X119920000Y-92550000D02*
X119260000Y-93210000D01*
X119920000Y-89260000D02*
X119920000Y-92550000D01*
X119546000Y-88886000D02*
X119920000Y-89260000D01*
X118038000Y-88886000D02*
X119546000Y-88886000D01*
%TO.N,/L3+*%
X152350000Y-101920000D02*
X152350000Y-101440000D01*
X149280000Y-102990000D02*
X151280000Y-102990000D01*
X140632157Y-90882157D02*
X147770000Y-98020000D01*
X136482790Y-86732791D02*
X140632157Y-90882157D01*
X135989107Y-86802211D02*
X135989106Y-86802212D01*
X151280000Y-102990000D02*
X152350000Y-101920000D01*
X135564842Y-86802211D02*
X135564842Y-86802212D01*
X136127949Y-85814844D02*
X135564842Y-86377947D01*
X147770000Y-98020000D02*
X147770000Y-101480000D01*
X136127948Y-85814845D02*
X136127949Y-85814844D01*
X135634264Y-85460000D02*
X135703685Y-85390580D01*
X135634265Y-85459999D02*
X135634264Y-85460000D01*
X134556000Y-84806000D02*
X135210000Y-85460000D01*
X147770000Y-101480000D02*
X149280000Y-102990000D01*
X136482789Y-86732792D02*
G75*
G03*
X136058527Y-86732792I-212131J-212131D01*
G01*
X135989106Y-86802212D02*
X136058526Y-86732791D01*
X135564821Y-86802232D02*
G75*
G02*
X135564842Y-86377947I212179J212132D01*
G01*
X118038000Y-84806000D02*
X134556000Y-84806000D01*
X135989133Y-86802237D02*
G75*
G02*
X135564842Y-86802212I-212133J212137D01*
G01*
X136127936Y-85814833D02*
G75*
G03*
X136127949Y-85390580I-212136J212133D01*
G01*
X136127948Y-85390581D02*
G75*
G03*
X135703686Y-85390581I-212131J-212131D01*
G01*
X135634232Y-85459967D02*
G75*
G02*
X135210000Y-85460000I-212132J212067D01*
G01*
%TO.N,/L2-*%
X115124000Y-89906000D02*
X115498000Y-89906000D01*
X113970000Y-91060000D02*
X115124000Y-89906000D01*
X122796662Y-94110000D02*
X114670000Y-94110000D01*
X125540000Y-94110000D02*
X122796662Y-94110000D01*
X125840000Y-93513867D02*
X125840000Y-93810000D01*
X126440000Y-94110000D02*
X126440000Y-93513867D01*
X126440000Y-94706133D02*
X126440000Y-94110000D01*
X127040000Y-93513867D02*
X127040000Y-94110000D01*
X127640000Y-94110000D02*
X127640000Y-93513867D01*
X127640000Y-94706133D02*
X127640000Y-94110000D01*
X128240000Y-94110000D02*
X128240000Y-94706133D01*
X128240000Y-93513867D02*
X128240000Y-94110000D01*
X128840000Y-94110000D02*
X128840000Y-93513867D01*
X128840000Y-94706133D02*
X128840000Y-94110000D01*
X132700000Y-94110000D02*
X130340000Y-94110000D01*
X134370000Y-98900000D02*
X134370000Y-95780000D01*
X125540000Y-94110000D02*
G75*
G03*
X125840000Y-93810000I0J300000D01*
G01*
X129440000Y-93513867D02*
X129440000Y-93810000D01*
X125839967Y-93513867D02*
G75*
G02*
X126140000Y-93213867I300033J-33D01*
G01*
X126140000Y-93213900D02*
G75*
G02*
X126440000Y-93513867I0J-300000D01*
G01*
X127040000Y-94110000D02*
X127040000Y-94706133D01*
X126439967Y-94706133D02*
G75*
G03*
X126740000Y-95006133I300033J33D01*
G01*
X113970000Y-93410000D02*
X113970000Y-91060000D01*
X126740000Y-95006100D02*
G75*
G03*
X127040000Y-94706133I0J300000D01*
G01*
X127039967Y-93513867D02*
G75*
G02*
X127340000Y-93213867I300033J-33D01*
G01*
X134370000Y-95780000D02*
X132700000Y-94110000D01*
X127340000Y-93213900D02*
G75*
G02*
X127640000Y-93513867I0J-300000D01*
G01*
X130040000Y-93810000D02*
X130040000Y-93513867D01*
X127639967Y-94706133D02*
G75*
G03*
X127940000Y-95006133I300033J33D01*
G01*
X128540000Y-93213900D02*
G75*
G02*
X128840000Y-93513867I0J-300000D01*
G01*
X129140000Y-95006100D02*
G75*
G03*
X129440000Y-94706133I0J300000D01*
G01*
X128239967Y-93513867D02*
G75*
G02*
X128540000Y-93213867I300033J-33D01*
G01*
X127940000Y-95006100D02*
G75*
G03*
X128240000Y-94706133I0J300000D01*
G01*
X129439967Y-93513867D02*
G75*
G02*
X129740000Y-93213867I300033J-33D01*
G01*
X114670000Y-94110000D02*
X113970000Y-93410000D01*
X129740000Y-93213900D02*
G75*
G02*
X130040000Y-93513867I0J-300000D01*
G01*
X129440000Y-93810000D02*
X129440000Y-94706133D01*
X128839967Y-94706133D02*
G75*
G03*
X129140000Y-95006133I300033J33D01*
G01*
X130040000Y-93810000D02*
G75*
G03*
X130340000Y-94110000I300000J0D01*
G01*
%TO.N,/L2+*%
X132680000Y-92000000D02*
X125720000Y-92000000D01*
X139520000Y-102880000D02*
X139520000Y-98840000D01*
X135370000Y-103460000D02*
X138940000Y-103460000D01*
X133350000Y-101440000D02*
X135370000Y-103460000D01*
X138940000Y-103460000D02*
X139520000Y-102880000D01*
X139520000Y-98840000D02*
X132680000Y-92000000D01*
%TO.N,/L1-*%
X107968494Y-94466568D02*
X108220830Y-94718904D01*
X108857228Y-94506774D02*
X108392758Y-94042304D01*
X109281490Y-94082508D02*
X109745960Y-94546978D01*
X110130018Y-93233980D02*
X110594488Y-93698450D01*
X109665550Y-92769512D02*
X110130018Y-93233980D01*
X111018752Y-93274186D02*
X110554284Y-92809718D01*
X110978546Y-92385452D02*
X111443016Y-92849922D01*
X111827074Y-91536924D02*
X112291544Y-92001394D01*
X111362606Y-91072456D02*
X111827074Y-91536924D01*
X112251340Y-91112662D02*
X111786870Y-90648192D01*
X112715808Y-91577130D02*
X112251340Y-91112662D01*
X110170224Y-94122714D02*
X109705756Y-93658246D01*
X112463470Y-90476263D02*
X113140072Y-91152866D01*
X112211134Y-90223927D02*
X112463470Y-90476263D01*
X112887734Y-90052000D02*
X112887735Y-90052000D01*
X115498000Y-87866000D02*
X113312000Y-90052000D01*
X112887735Y-90052000D02*
X112635398Y-89799663D01*
X108220794Y-95143132D02*
G75*
G03*
X108220830Y-94718904I-212094J212132D01*
G01*
X108817022Y-93618040D02*
X109281490Y-94082508D01*
X107968530Y-94466532D02*
G75*
G02*
X107968494Y-94042304I212070J212132D01*
G01*
X110554284Y-92809718D02*
X110089814Y-92345248D01*
X107968495Y-94042305D02*
G75*
G02*
X108392757Y-94042305I212131J-212131D01*
G01*
X111867280Y-92425658D02*
X111402812Y-91961190D01*
X109321697Y-94971241D02*
G75*
G03*
X109745959Y-94971241I212131J212131D01*
G01*
X109321696Y-94971242D02*
X108857228Y-94506774D01*
X108817031Y-93618031D02*
G75*
G02*
X108817023Y-93193777I212169J212131D01*
G01*
X106870000Y-96494000D02*
X106870000Y-98900000D01*
X110594506Y-94122732D02*
G75*
G03*
X110594488Y-93698450I-212106J212132D01*
G01*
X109745950Y-94971232D02*
G75*
G03*
X109745960Y-94546978I-212150J212132D01*
G01*
X109665531Y-92769531D02*
G75*
G02*
X109665551Y-92345249I212169J212131D01*
G01*
X109665551Y-92345249D02*
G75*
G02*
X110089813Y-92345249I212131J-212131D01*
G01*
X110514078Y-91920984D02*
X110978546Y-92385452D01*
X108220830Y-95143168D02*
X107204064Y-96159936D01*
X111018753Y-93274185D02*
G75*
G03*
X111443015Y-93274185I212131J212131D01*
G01*
X111443062Y-93274232D02*
G75*
G03*
X111443016Y-92849922I-212162J212132D01*
G01*
X110514031Y-91921031D02*
G75*
G02*
X110514079Y-91496721I212169J212131D01*
G01*
X110170225Y-94122713D02*
G75*
G03*
X110594487Y-94122713I212131J212131D01*
G01*
X110514079Y-91496721D02*
G75*
G02*
X110938341Y-91496721I212131J-212131D01*
G01*
X111867281Y-92425657D02*
G75*
G03*
X112291543Y-92425657I212131J212131D01*
G01*
X112291518Y-92425632D02*
G75*
G03*
X112291544Y-92001394I-212118J212132D01*
G01*
X111402812Y-91961190D02*
X110938342Y-91496720D01*
X111362607Y-90648193D02*
G75*
G02*
X111786869Y-90648193I212131J-212131D01*
G01*
X112715809Y-91577129D02*
G75*
G03*
X113140071Y-91577129I212131J212131D01*
G01*
X108817023Y-93193777D02*
G75*
G02*
X109241285Y-93193777I212131J-212131D01*
G01*
X111362630Y-91072432D02*
G75*
G02*
X111362606Y-90648192I212070J212132D01*
G01*
X109705756Y-93658246D02*
X109241286Y-93193776D01*
X107204064Y-96159936D02*
X106870000Y-96494000D01*
X113140074Y-91577132D02*
G75*
G03*
X113140072Y-91152866I-212174J212132D01*
G01*
X112211135Y-89799664D02*
G75*
G02*
X112635397Y-89799664I212131J-212131D01*
G01*
X112887734Y-90052000D02*
G75*
G03*
X113312000Y-90052000I212133J212134D01*
G01*
X112211129Y-90223932D02*
G75*
G02*
X112211134Y-89799663I212171J212132D01*
G01*
%TO.N,/L3-*%
X153495000Y-98445000D02*
X153495000Y-98900000D01*
X117088340Y-82550000D02*
X137600000Y-82550000D01*
X115498000Y-84140340D02*
X117088340Y-82550000D01*
X137600000Y-82550000D02*
X153495000Y-98445000D01*
X115498000Y-85201000D02*
X115498000Y-84140340D01*
%TD*%
M02*
