%TF.GenerationSoftware,KiCad,Pcbnew,(6.0.11)*%
%TF.CreationDate,2024-03-01T18:21:50+00:00*%
%TF.ProjectId,BT66B_RJ45_JB,42543636-425f-4524-9a34-355f4a422e6b,rev?*%
%TF.SameCoordinates,Original*%
%TF.FileFunction,Drillmap*%
%TF.FilePolarity,Positive*%
%FSLAX45Y45*%
G04 Gerber Fmt 4.5, Leading zero omitted, Abs format (unit mm)*
G04 Created by KiCad (PCBNEW (6.0.11)) date 2024-03-01 18:21:50*
%MOMM*%
%LPD*%
G01*
G04 APERTURE LIST*
%ADD10C,0.150000*%
%ADD11C,0.200000*%
%ADD12C,0.235000*%
%ADD13C,0.320000*%
%ADD14C,0.400000*%
G04 APERTURE END LIST*
D10*
X9560054Y-11817889D02*
X9825100Y-8018599D01*
X18847947Y-8031111D02*
X19113011Y-11830454D01*
X9996111Y-7860053D02*
X18689401Y-7860100D01*
X9996111Y-7860054D02*
G75*
G03*
X9825100Y-8018599I-12011J-158546D01*
G01*
X9560054Y-11817889D02*
G75*
G03*
X9718599Y-11988900I158546J-12011D01*
G01*
X18942000Y-11988997D02*
G75*
G03*
X19113011Y-11830454I12010J158547D01*
G01*
X18847946Y-8031111D02*
G75*
G03*
X18689401Y-7860100I-158546J12011D01*
G01*
X9718599Y-11988900D02*
X18942000Y-11989000D01*
D11*
D12*
X9768500Y-10256500D02*
X10003500Y-10491500D01*
X10003500Y-10256500D02*
X9768500Y-10491500D01*
X11268500Y-10256500D02*
X11503500Y-10491500D01*
X11503500Y-10256500D02*
X11268500Y-10491500D01*
X11916300Y-7970100D02*
X12151300Y-8205100D01*
X12151300Y-7970100D02*
X11916300Y-8205100D01*
X11916300Y-9470100D02*
X12151300Y-9705100D01*
X12151300Y-9470100D02*
X11916300Y-9705100D01*
X12518500Y-10256500D02*
X12753500Y-10491500D01*
X12753500Y-10256500D02*
X12518500Y-10491500D01*
X14018500Y-10256500D02*
X14253500Y-10491500D01*
X14253500Y-10256500D02*
X14018500Y-10491500D01*
X14418500Y-10256500D02*
X14653500Y-10491500D01*
X14653500Y-10256500D02*
X14418500Y-10491500D01*
X15918500Y-10256500D02*
X16153500Y-10491500D01*
X16153500Y-10256500D02*
X15918500Y-10491500D01*
X17168500Y-10256500D02*
X17403500Y-10491500D01*
X17403500Y-10256500D02*
X17168500Y-10491500D01*
X18668500Y-10256500D02*
X18903500Y-10491500D01*
X18903500Y-10256500D02*
X18668500Y-10491500D01*
D13*
X15349200Y-8393100D02*
G75*
G03*
X15349200Y-8393100I-160000J0D01*
G01*
X15349200Y-9282100D02*
G75*
G03*
X15349200Y-9282100I-160000J0D01*
G01*
D14*
X12034000Y-10086000D02*
X12034000Y-10486000D01*
X11834000Y-10286000D02*
X12234000Y-10286000D01*
X16635000Y-10086000D02*
X16635000Y-10486000D01*
X16435000Y-10286000D02*
X16835000Y-10286000D01*
D11*
X9809719Y-12307427D02*
X9809719Y-12107427D01*
X9857338Y-12107427D01*
X9885910Y-12116951D01*
X9904957Y-12135999D01*
X9914481Y-12155046D01*
X9924005Y-12193141D01*
X9924005Y-12221713D01*
X9914481Y-12259808D01*
X9904957Y-12278856D01*
X9885910Y-12297903D01*
X9857338Y-12307427D01*
X9809719Y-12307427D01*
X10009719Y-12307427D02*
X10009719Y-12174094D01*
X10009719Y-12212189D02*
X10019243Y-12193141D01*
X10028767Y-12183618D01*
X10047814Y-12174094D01*
X10066862Y-12174094D01*
X10133529Y-12307427D02*
X10133529Y-12174094D01*
X10133529Y-12107427D02*
X10124005Y-12116951D01*
X10133529Y-12126475D01*
X10143052Y-12116951D01*
X10133529Y-12107427D01*
X10133529Y-12126475D01*
X10257338Y-12307427D02*
X10238291Y-12297903D01*
X10228767Y-12278856D01*
X10228767Y-12107427D01*
X10362100Y-12307427D02*
X10343052Y-12297903D01*
X10333529Y-12278856D01*
X10333529Y-12107427D01*
X10590672Y-12307427D02*
X10590672Y-12107427D01*
X10657338Y-12250284D01*
X10724005Y-12107427D01*
X10724005Y-12307427D01*
X10904957Y-12307427D02*
X10904957Y-12202665D01*
X10895433Y-12183618D01*
X10876386Y-12174094D01*
X10838291Y-12174094D01*
X10819243Y-12183618D01*
X10904957Y-12297903D02*
X10885910Y-12307427D01*
X10838291Y-12307427D01*
X10819243Y-12297903D01*
X10809719Y-12278856D01*
X10809719Y-12259808D01*
X10819243Y-12240760D01*
X10838291Y-12231237D01*
X10885910Y-12231237D01*
X10904957Y-12221713D01*
X11000195Y-12174094D02*
X11000195Y-12374094D01*
X11000195Y-12183618D02*
X11019243Y-12174094D01*
X11057338Y-12174094D01*
X11076386Y-12183618D01*
X11085910Y-12193141D01*
X11095433Y-12212189D01*
X11095433Y-12269332D01*
X11085910Y-12288379D01*
X11076386Y-12297903D01*
X11057338Y-12307427D01*
X11019243Y-12307427D01*
X11000195Y-12297903D01*
X11181148Y-12288379D02*
X11190671Y-12297903D01*
X11181148Y-12307427D01*
X11171624Y-12297903D01*
X11181148Y-12288379D01*
X11181148Y-12307427D01*
X11181148Y-12183618D02*
X11190671Y-12193141D01*
X11181148Y-12202665D01*
X11171624Y-12193141D01*
X11181148Y-12183618D01*
X11181148Y-12202665D01*
X9352100Y-12536951D02*
X9552100Y-12736951D01*
X9552100Y-12536951D02*
X9352100Y-12736951D01*
X9800195Y-12546475D02*
X9809719Y-12536951D01*
X9828767Y-12527427D01*
X9876386Y-12527427D01*
X9895433Y-12536951D01*
X9904957Y-12546475D01*
X9914481Y-12565522D01*
X9914481Y-12584570D01*
X9904957Y-12613141D01*
X9790672Y-12727427D01*
X9914481Y-12727427D01*
X10000195Y-12708379D02*
X10009719Y-12717903D01*
X10000195Y-12727427D01*
X9990672Y-12717903D01*
X10000195Y-12708379D01*
X10000195Y-12727427D01*
X10076386Y-12527427D02*
X10200195Y-12527427D01*
X10133529Y-12603618D01*
X10162100Y-12603618D01*
X10181148Y-12613141D01*
X10190672Y-12622665D01*
X10200195Y-12641713D01*
X10200195Y-12689332D01*
X10190672Y-12708379D01*
X10181148Y-12717903D01*
X10162100Y-12727427D01*
X10104957Y-12727427D01*
X10085910Y-12717903D01*
X10076386Y-12708379D01*
X10381148Y-12527427D02*
X10285910Y-12527427D01*
X10276386Y-12622665D01*
X10285910Y-12613141D01*
X10304957Y-12603618D01*
X10352576Y-12603618D01*
X10371624Y-12613141D01*
X10381148Y-12622665D01*
X10390672Y-12641713D01*
X10390672Y-12689332D01*
X10381148Y-12708379D01*
X10371624Y-12717903D01*
X10352576Y-12727427D01*
X10304957Y-12727427D01*
X10285910Y-12717903D01*
X10276386Y-12708379D01*
X10514481Y-12527427D02*
X10533529Y-12527427D01*
X10552576Y-12536951D01*
X10562100Y-12546475D01*
X10571624Y-12565522D01*
X10581148Y-12603618D01*
X10581148Y-12651237D01*
X10571624Y-12689332D01*
X10562100Y-12708379D01*
X10552576Y-12717903D01*
X10533529Y-12727427D01*
X10514481Y-12727427D01*
X10495433Y-12717903D01*
X10485910Y-12708379D01*
X10476386Y-12689332D01*
X10466862Y-12651237D01*
X10466862Y-12603618D01*
X10476386Y-12565522D01*
X10485910Y-12546475D01*
X10495433Y-12536951D01*
X10514481Y-12527427D01*
X10666862Y-12727427D02*
X10666862Y-12594094D01*
X10666862Y-12613141D02*
X10676386Y-12603618D01*
X10695433Y-12594094D01*
X10724005Y-12594094D01*
X10743052Y-12603618D01*
X10752576Y-12622665D01*
X10752576Y-12727427D01*
X10752576Y-12622665D02*
X10762100Y-12603618D01*
X10781148Y-12594094D01*
X10809719Y-12594094D01*
X10828767Y-12603618D01*
X10838291Y-12622665D01*
X10838291Y-12727427D01*
X10933529Y-12727427D02*
X10933529Y-12594094D01*
X10933529Y-12613141D02*
X10943052Y-12603618D01*
X10962100Y-12594094D01*
X10990672Y-12594094D01*
X11009719Y-12603618D01*
X11019243Y-12622665D01*
X11019243Y-12727427D01*
X11019243Y-12622665D02*
X11028767Y-12603618D01*
X11047814Y-12594094D01*
X11076386Y-12594094D01*
X11095433Y-12603618D01*
X11104957Y-12622665D01*
X11104957Y-12727427D01*
X11495433Y-12517903D02*
X11324005Y-12775046D01*
X11752576Y-12527427D02*
X11771624Y-12527427D01*
X11790671Y-12536951D01*
X11800195Y-12546475D01*
X11809719Y-12565522D01*
X11819243Y-12603618D01*
X11819243Y-12651237D01*
X11809719Y-12689332D01*
X11800195Y-12708379D01*
X11790671Y-12717903D01*
X11771624Y-12727427D01*
X11752576Y-12727427D01*
X11733529Y-12717903D01*
X11724005Y-12708379D01*
X11714481Y-12689332D01*
X11704957Y-12651237D01*
X11704957Y-12603618D01*
X11714481Y-12565522D01*
X11724005Y-12546475D01*
X11733529Y-12536951D01*
X11752576Y-12527427D01*
X11904957Y-12708379D02*
X11914481Y-12717903D01*
X11904957Y-12727427D01*
X11895433Y-12717903D01*
X11904957Y-12708379D01*
X11904957Y-12727427D01*
X12038290Y-12527427D02*
X12057338Y-12527427D01*
X12076386Y-12536951D01*
X12085910Y-12546475D01*
X12095433Y-12565522D01*
X12104957Y-12603618D01*
X12104957Y-12651237D01*
X12095433Y-12689332D01*
X12085910Y-12708379D01*
X12076386Y-12717903D01*
X12057338Y-12727427D01*
X12038290Y-12727427D01*
X12019243Y-12717903D01*
X12009719Y-12708379D01*
X12000195Y-12689332D01*
X11990671Y-12651237D01*
X11990671Y-12603618D01*
X12000195Y-12565522D01*
X12009719Y-12546475D01*
X12019243Y-12536951D01*
X12038290Y-12527427D01*
X12200195Y-12727427D02*
X12238290Y-12727427D01*
X12257338Y-12717903D01*
X12266862Y-12708379D01*
X12285910Y-12679808D01*
X12295433Y-12641713D01*
X12295433Y-12565522D01*
X12285910Y-12546475D01*
X12276386Y-12536951D01*
X12257338Y-12527427D01*
X12219243Y-12527427D01*
X12200195Y-12536951D01*
X12190671Y-12546475D01*
X12181148Y-12565522D01*
X12181148Y-12613141D01*
X12190671Y-12632189D01*
X12200195Y-12641713D01*
X12219243Y-12651237D01*
X12257338Y-12651237D01*
X12276386Y-12641713D01*
X12285910Y-12632189D01*
X12295433Y-12613141D01*
X12371624Y-12546475D02*
X12381148Y-12536951D01*
X12400195Y-12527427D01*
X12447814Y-12527427D01*
X12466862Y-12536951D01*
X12476386Y-12546475D01*
X12485910Y-12565522D01*
X12485910Y-12584570D01*
X12476386Y-12613141D01*
X12362100Y-12727427D01*
X12485910Y-12727427D01*
X12666862Y-12527427D02*
X12571624Y-12527427D01*
X12562100Y-12622665D01*
X12571624Y-12613141D01*
X12590671Y-12603618D01*
X12638290Y-12603618D01*
X12657338Y-12613141D01*
X12666862Y-12622665D01*
X12676386Y-12641713D01*
X12676386Y-12689332D01*
X12666862Y-12708379D01*
X12657338Y-12717903D01*
X12638290Y-12727427D01*
X12590671Y-12727427D01*
X12571624Y-12717903D01*
X12562100Y-12708379D01*
X12752576Y-12527427D02*
X12752576Y-12565522D01*
X12828767Y-12527427D02*
X12828767Y-12565522D01*
X13124005Y-12803618D02*
X13114481Y-12794094D01*
X13095433Y-12765522D01*
X13085910Y-12746475D01*
X13076386Y-12717903D01*
X13066862Y-12670284D01*
X13066862Y-12632189D01*
X13076386Y-12584570D01*
X13085910Y-12555999D01*
X13095433Y-12536951D01*
X13114481Y-12508379D01*
X13124005Y-12498856D01*
X13304957Y-12727427D02*
X13190671Y-12727427D01*
X13247814Y-12727427D02*
X13247814Y-12527427D01*
X13228767Y-12555999D01*
X13209719Y-12575046D01*
X13190671Y-12584570D01*
X13428767Y-12527427D02*
X13447814Y-12527427D01*
X13466862Y-12536951D01*
X13476386Y-12546475D01*
X13485910Y-12565522D01*
X13495433Y-12603618D01*
X13495433Y-12651237D01*
X13485910Y-12689332D01*
X13476386Y-12708379D01*
X13466862Y-12717903D01*
X13447814Y-12727427D01*
X13428767Y-12727427D01*
X13409719Y-12717903D01*
X13400195Y-12708379D01*
X13390671Y-12689332D01*
X13381148Y-12651237D01*
X13381148Y-12603618D01*
X13390671Y-12565522D01*
X13400195Y-12546475D01*
X13409719Y-12536951D01*
X13428767Y-12527427D01*
X13733529Y-12727427D02*
X13733529Y-12527427D01*
X13819243Y-12727427D02*
X13819243Y-12622665D01*
X13809719Y-12603618D01*
X13790671Y-12594094D01*
X13762100Y-12594094D01*
X13743052Y-12603618D01*
X13733529Y-12613141D01*
X13943052Y-12727427D02*
X13924005Y-12717903D01*
X13914481Y-12708379D01*
X13904957Y-12689332D01*
X13904957Y-12632189D01*
X13914481Y-12613141D01*
X13924005Y-12603618D01*
X13943052Y-12594094D01*
X13971624Y-12594094D01*
X13990671Y-12603618D01*
X14000195Y-12613141D01*
X14009719Y-12632189D01*
X14009719Y-12689332D01*
X14000195Y-12708379D01*
X13990671Y-12717903D01*
X13971624Y-12727427D01*
X13943052Y-12727427D01*
X14124005Y-12727427D02*
X14104957Y-12717903D01*
X14095433Y-12698856D01*
X14095433Y-12527427D01*
X14276386Y-12717903D02*
X14257338Y-12727427D01*
X14219243Y-12727427D01*
X14200195Y-12717903D01*
X14190671Y-12698856D01*
X14190671Y-12622665D01*
X14200195Y-12603618D01*
X14219243Y-12594094D01*
X14257338Y-12594094D01*
X14276386Y-12603618D01*
X14285910Y-12622665D01*
X14285910Y-12641713D01*
X14190671Y-12660760D01*
X14362100Y-12717903D02*
X14381148Y-12727427D01*
X14419243Y-12727427D01*
X14438290Y-12717903D01*
X14447814Y-12698856D01*
X14447814Y-12689332D01*
X14438290Y-12670284D01*
X14419243Y-12660760D01*
X14390671Y-12660760D01*
X14371624Y-12651237D01*
X14362100Y-12632189D01*
X14362100Y-12622665D01*
X14371624Y-12603618D01*
X14390671Y-12594094D01*
X14419243Y-12594094D01*
X14438290Y-12603618D01*
X14514481Y-12803618D02*
X14524005Y-12794094D01*
X14543052Y-12765522D01*
X14552576Y-12746475D01*
X14562100Y-12717903D01*
X14571624Y-12670284D01*
X14571624Y-12632189D01*
X14562100Y-12584570D01*
X14552576Y-12555999D01*
X14543052Y-12536951D01*
X14524005Y-12508379D01*
X14514481Y-12498856D01*
X14876386Y-12803618D02*
X14866862Y-12794094D01*
X14847814Y-12765522D01*
X14838290Y-12746475D01*
X14828767Y-12717903D01*
X14819243Y-12670284D01*
X14819243Y-12632189D01*
X14828767Y-12584570D01*
X14838290Y-12555999D01*
X14847814Y-12536951D01*
X14866862Y-12508379D01*
X14876386Y-12498856D01*
X14952576Y-12594094D02*
X14952576Y-12727427D01*
X14952576Y-12613141D02*
X14962100Y-12603618D01*
X14981148Y-12594094D01*
X15009719Y-12594094D01*
X15028767Y-12603618D01*
X15038290Y-12622665D01*
X15038290Y-12727427D01*
X15162100Y-12727427D02*
X15143052Y-12717903D01*
X15133529Y-12708379D01*
X15124005Y-12689332D01*
X15124005Y-12632189D01*
X15133529Y-12613141D01*
X15143052Y-12603618D01*
X15162100Y-12594094D01*
X15190671Y-12594094D01*
X15209719Y-12603618D01*
X15219243Y-12613141D01*
X15228767Y-12632189D01*
X15228767Y-12689332D01*
X15219243Y-12708379D01*
X15209719Y-12717903D01*
X15190671Y-12727427D01*
X15162100Y-12727427D01*
X15285910Y-12594094D02*
X15362100Y-12594094D01*
X15314481Y-12527427D02*
X15314481Y-12698856D01*
X15324005Y-12717903D01*
X15343052Y-12727427D01*
X15362100Y-12727427D01*
X15581148Y-12594094D02*
X15581148Y-12794094D01*
X15581148Y-12603618D02*
X15600195Y-12594094D01*
X15638290Y-12594094D01*
X15657338Y-12603618D01*
X15666862Y-12613141D01*
X15676386Y-12632189D01*
X15676386Y-12689332D01*
X15666862Y-12708379D01*
X15657338Y-12717903D01*
X15638290Y-12727427D01*
X15600195Y-12727427D01*
X15581148Y-12717903D01*
X15790671Y-12727427D02*
X15771624Y-12717903D01*
X15762100Y-12698856D01*
X15762100Y-12527427D01*
X15952576Y-12727427D02*
X15952576Y-12622665D01*
X15943052Y-12603618D01*
X15924005Y-12594094D01*
X15885910Y-12594094D01*
X15866862Y-12603618D01*
X15952576Y-12717903D02*
X15933529Y-12727427D01*
X15885910Y-12727427D01*
X15866862Y-12717903D01*
X15857338Y-12698856D01*
X15857338Y-12679808D01*
X15866862Y-12660760D01*
X15885910Y-12651237D01*
X15933529Y-12651237D01*
X15952576Y-12641713D01*
X16019243Y-12594094D02*
X16095433Y-12594094D01*
X16047814Y-12527427D02*
X16047814Y-12698856D01*
X16057338Y-12717903D01*
X16076386Y-12727427D01*
X16095433Y-12727427D01*
X16238290Y-12717903D02*
X16219243Y-12727427D01*
X16181148Y-12727427D01*
X16162100Y-12717903D01*
X16152576Y-12698856D01*
X16152576Y-12622665D01*
X16162100Y-12603618D01*
X16181148Y-12594094D01*
X16219243Y-12594094D01*
X16238290Y-12603618D01*
X16247814Y-12622665D01*
X16247814Y-12641713D01*
X16152576Y-12660760D01*
X16419243Y-12727427D02*
X16419243Y-12527427D01*
X16419243Y-12717903D02*
X16400195Y-12727427D01*
X16362100Y-12727427D01*
X16343052Y-12717903D01*
X16333529Y-12708379D01*
X16324005Y-12689332D01*
X16324005Y-12632189D01*
X16333529Y-12613141D01*
X16343052Y-12603618D01*
X16362100Y-12594094D01*
X16400195Y-12594094D01*
X16419243Y-12603618D01*
X16495433Y-12803618D02*
X16504957Y-12794094D01*
X16524005Y-12765522D01*
X16533529Y-12746475D01*
X16543052Y-12717903D01*
X16552576Y-12670284D01*
X16552576Y-12632189D01*
X16543052Y-12584570D01*
X16533529Y-12555999D01*
X16524005Y-12536951D01*
X16504957Y-12508379D01*
X16495433Y-12498856D01*
X9552100Y-12956951D02*
G75*
G03*
X9552100Y-12956951I-100000J0D01*
G01*
X9790672Y-12847427D02*
X9914481Y-12847427D01*
X9847814Y-12923618D01*
X9876386Y-12923618D01*
X9895433Y-12933141D01*
X9904957Y-12942665D01*
X9914481Y-12961713D01*
X9914481Y-13009332D01*
X9904957Y-13028379D01*
X9895433Y-13037903D01*
X9876386Y-13047427D01*
X9819243Y-13047427D01*
X9800195Y-13037903D01*
X9790672Y-13028379D01*
X10000195Y-13028379D02*
X10009719Y-13037903D01*
X10000195Y-13047427D01*
X9990672Y-13037903D01*
X10000195Y-13028379D01*
X10000195Y-13047427D01*
X10085910Y-12866475D02*
X10095433Y-12856951D01*
X10114481Y-12847427D01*
X10162100Y-12847427D01*
X10181148Y-12856951D01*
X10190672Y-12866475D01*
X10200195Y-12885522D01*
X10200195Y-12904570D01*
X10190672Y-12933141D01*
X10076386Y-13047427D01*
X10200195Y-13047427D01*
X10324005Y-12847427D02*
X10343052Y-12847427D01*
X10362100Y-12856951D01*
X10371624Y-12866475D01*
X10381148Y-12885522D01*
X10390672Y-12923618D01*
X10390672Y-12971237D01*
X10381148Y-13009332D01*
X10371624Y-13028379D01*
X10362100Y-13037903D01*
X10343052Y-13047427D01*
X10324005Y-13047427D01*
X10304957Y-13037903D01*
X10295433Y-13028379D01*
X10285910Y-13009332D01*
X10276386Y-12971237D01*
X10276386Y-12923618D01*
X10285910Y-12885522D01*
X10295433Y-12866475D01*
X10304957Y-12856951D01*
X10324005Y-12847427D01*
X10514481Y-12847427D02*
X10533529Y-12847427D01*
X10552576Y-12856951D01*
X10562100Y-12866475D01*
X10571624Y-12885522D01*
X10581148Y-12923618D01*
X10581148Y-12971237D01*
X10571624Y-13009332D01*
X10562100Y-13028379D01*
X10552576Y-13037903D01*
X10533529Y-13047427D01*
X10514481Y-13047427D01*
X10495433Y-13037903D01*
X10485910Y-13028379D01*
X10476386Y-13009332D01*
X10466862Y-12971237D01*
X10466862Y-12923618D01*
X10476386Y-12885522D01*
X10485910Y-12866475D01*
X10495433Y-12856951D01*
X10514481Y-12847427D01*
X10666862Y-13047427D02*
X10666862Y-12914094D01*
X10666862Y-12933141D02*
X10676386Y-12923618D01*
X10695433Y-12914094D01*
X10724005Y-12914094D01*
X10743052Y-12923618D01*
X10752576Y-12942665D01*
X10752576Y-13047427D01*
X10752576Y-12942665D02*
X10762100Y-12923618D01*
X10781148Y-12914094D01*
X10809719Y-12914094D01*
X10828767Y-12923618D01*
X10838291Y-12942665D01*
X10838291Y-13047427D01*
X10933529Y-13047427D02*
X10933529Y-12914094D01*
X10933529Y-12933141D02*
X10943052Y-12923618D01*
X10962100Y-12914094D01*
X10990672Y-12914094D01*
X11009719Y-12923618D01*
X11019243Y-12942665D01*
X11019243Y-13047427D01*
X11019243Y-12942665D02*
X11028767Y-12923618D01*
X11047814Y-12914094D01*
X11076386Y-12914094D01*
X11095433Y-12923618D01*
X11104957Y-12942665D01*
X11104957Y-13047427D01*
X11495433Y-12837903D02*
X11324005Y-13095046D01*
X11752576Y-12847427D02*
X11771624Y-12847427D01*
X11790671Y-12856951D01*
X11800195Y-12866475D01*
X11809719Y-12885522D01*
X11819243Y-12923618D01*
X11819243Y-12971237D01*
X11809719Y-13009332D01*
X11800195Y-13028379D01*
X11790671Y-13037903D01*
X11771624Y-13047427D01*
X11752576Y-13047427D01*
X11733529Y-13037903D01*
X11724005Y-13028379D01*
X11714481Y-13009332D01*
X11704957Y-12971237D01*
X11704957Y-12923618D01*
X11714481Y-12885522D01*
X11724005Y-12866475D01*
X11733529Y-12856951D01*
X11752576Y-12847427D01*
X11904957Y-13028379D02*
X11914481Y-13037903D01*
X11904957Y-13047427D01*
X11895433Y-13037903D01*
X11904957Y-13028379D01*
X11904957Y-13047427D01*
X12104957Y-13047427D02*
X11990671Y-13047427D01*
X12047814Y-13047427D02*
X12047814Y-12847427D01*
X12028767Y-12875999D01*
X12009719Y-12895046D01*
X11990671Y-12904570D01*
X12181148Y-12866475D02*
X12190671Y-12856951D01*
X12209719Y-12847427D01*
X12257338Y-12847427D01*
X12276386Y-12856951D01*
X12285910Y-12866475D01*
X12295433Y-12885522D01*
X12295433Y-12904570D01*
X12285910Y-12933141D01*
X12171624Y-13047427D01*
X12295433Y-13047427D01*
X12466862Y-12847427D02*
X12428767Y-12847427D01*
X12409719Y-12856951D01*
X12400195Y-12866475D01*
X12381148Y-12895046D01*
X12371624Y-12933141D01*
X12371624Y-13009332D01*
X12381148Y-13028379D01*
X12390671Y-13037903D01*
X12409719Y-13047427D01*
X12447814Y-13047427D01*
X12466862Y-13037903D01*
X12476386Y-13028379D01*
X12485910Y-13009332D01*
X12485910Y-12961713D01*
X12476386Y-12942665D01*
X12466862Y-12933141D01*
X12447814Y-12923618D01*
X12409719Y-12923618D01*
X12390671Y-12933141D01*
X12381148Y-12942665D01*
X12371624Y-12961713D01*
X12609719Y-12847427D02*
X12628767Y-12847427D01*
X12647814Y-12856951D01*
X12657338Y-12866475D01*
X12666862Y-12885522D01*
X12676386Y-12923618D01*
X12676386Y-12971237D01*
X12666862Y-13009332D01*
X12657338Y-13028379D01*
X12647814Y-13037903D01*
X12628767Y-13047427D01*
X12609719Y-13047427D01*
X12590671Y-13037903D01*
X12581148Y-13028379D01*
X12571624Y-13009332D01*
X12562100Y-12971237D01*
X12562100Y-12923618D01*
X12571624Y-12885522D01*
X12581148Y-12866475D01*
X12590671Y-12856951D01*
X12609719Y-12847427D01*
X12752576Y-12847427D02*
X12752576Y-12885522D01*
X12828767Y-12847427D02*
X12828767Y-12885522D01*
X13124005Y-13123618D02*
X13114481Y-13114094D01*
X13095433Y-13085522D01*
X13085910Y-13066475D01*
X13076386Y-13037903D01*
X13066862Y-12990284D01*
X13066862Y-12952189D01*
X13076386Y-12904570D01*
X13085910Y-12875999D01*
X13095433Y-12856951D01*
X13114481Y-12828379D01*
X13124005Y-12818856D01*
X13190671Y-12866475D02*
X13200195Y-12856951D01*
X13219243Y-12847427D01*
X13266862Y-12847427D01*
X13285910Y-12856951D01*
X13295433Y-12866475D01*
X13304957Y-12885522D01*
X13304957Y-12904570D01*
X13295433Y-12933141D01*
X13181148Y-13047427D01*
X13304957Y-13047427D01*
X13543052Y-13047427D02*
X13543052Y-12847427D01*
X13628767Y-13047427D02*
X13628767Y-12942665D01*
X13619243Y-12923618D01*
X13600195Y-12914094D01*
X13571624Y-12914094D01*
X13552576Y-12923618D01*
X13543052Y-12933141D01*
X13752576Y-13047427D02*
X13733529Y-13037903D01*
X13724005Y-13028379D01*
X13714481Y-13009332D01*
X13714481Y-12952189D01*
X13724005Y-12933141D01*
X13733529Y-12923618D01*
X13752576Y-12914094D01*
X13781148Y-12914094D01*
X13800195Y-12923618D01*
X13809719Y-12933141D01*
X13819243Y-12952189D01*
X13819243Y-13009332D01*
X13809719Y-13028379D01*
X13800195Y-13037903D01*
X13781148Y-13047427D01*
X13752576Y-13047427D01*
X13933529Y-13047427D02*
X13914481Y-13037903D01*
X13904957Y-13018856D01*
X13904957Y-12847427D01*
X14085910Y-13037903D02*
X14066862Y-13047427D01*
X14028767Y-13047427D01*
X14009719Y-13037903D01*
X14000195Y-13018856D01*
X14000195Y-12942665D01*
X14009719Y-12923618D01*
X14028767Y-12914094D01*
X14066862Y-12914094D01*
X14085910Y-12923618D01*
X14095433Y-12942665D01*
X14095433Y-12961713D01*
X14000195Y-12980760D01*
X14171624Y-13037903D02*
X14190671Y-13047427D01*
X14228767Y-13047427D01*
X14247814Y-13037903D01*
X14257338Y-13018856D01*
X14257338Y-13009332D01*
X14247814Y-12990284D01*
X14228767Y-12980760D01*
X14200195Y-12980760D01*
X14181148Y-12971237D01*
X14171624Y-12952189D01*
X14171624Y-12942665D01*
X14181148Y-12923618D01*
X14200195Y-12914094D01*
X14228767Y-12914094D01*
X14247814Y-12923618D01*
X14324005Y-13123618D02*
X14333529Y-13114094D01*
X14352576Y-13085522D01*
X14362100Y-13066475D01*
X14371624Y-13037903D01*
X14381148Y-12990284D01*
X14381148Y-12952189D01*
X14371624Y-12904570D01*
X14362100Y-12875999D01*
X14352576Y-12856951D01*
X14333529Y-12828379D01*
X14324005Y-12818856D01*
X14685910Y-13123618D02*
X14676386Y-13114094D01*
X14657338Y-13085522D01*
X14647814Y-13066475D01*
X14638290Y-13037903D01*
X14628767Y-12990284D01*
X14628767Y-12952189D01*
X14638290Y-12904570D01*
X14647814Y-12875999D01*
X14657338Y-12856951D01*
X14676386Y-12828379D01*
X14685910Y-12818856D01*
X14762100Y-12914094D02*
X14762100Y-13047427D01*
X14762100Y-12933141D02*
X14771624Y-12923618D01*
X14790671Y-12914094D01*
X14819243Y-12914094D01*
X14838290Y-12923618D01*
X14847814Y-12942665D01*
X14847814Y-13047427D01*
X14971624Y-13047427D02*
X14952576Y-13037903D01*
X14943052Y-13028379D01*
X14933529Y-13009332D01*
X14933529Y-12952189D01*
X14943052Y-12933141D01*
X14952576Y-12923618D01*
X14971624Y-12914094D01*
X15000195Y-12914094D01*
X15019243Y-12923618D01*
X15028767Y-12933141D01*
X15038290Y-12952189D01*
X15038290Y-13009332D01*
X15028767Y-13028379D01*
X15019243Y-13037903D01*
X15000195Y-13047427D01*
X14971624Y-13047427D01*
X15095433Y-12914094D02*
X15171624Y-12914094D01*
X15124005Y-12847427D02*
X15124005Y-13018856D01*
X15133529Y-13037903D01*
X15152576Y-13047427D01*
X15171624Y-13047427D01*
X15390671Y-12914094D02*
X15390671Y-13114094D01*
X15390671Y-12923618D02*
X15409719Y-12914094D01*
X15447814Y-12914094D01*
X15466862Y-12923618D01*
X15476386Y-12933141D01*
X15485910Y-12952189D01*
X15485910Y-13009332D01*
X15476386Y-13028379D01*
X15466862Y-13037903D01*
X15447814Y-13047427D01*
X15409719Y-13047427D01*
X15390671Y-13037903D01*
X15600195Y-13047427D02*
X15581148Y-13037903D01*
X15571624Y-13018856D01*
X15571624Y-12847427D01*
X15762100Y-13047427D02*
X15762100Y-12942665D01*
X15752576Y-12923618D01*
X15733529Y-12914094D01*
X15695433Y-12914094D01*
X15676386Y-12923618D01*
X15762100Y-13037903D02*
X15743052Y-13047427D01*
X15695433Y-13047427D01*
X15676386Y-13037903D01*
X15666862Y-13018856D01*
X15666862Y-12999808D01*
X15676386Y-12980760D01*
X15695433Y-12971237D01*
X15743052Y-12971237D01*
X15762100Y-12961713D01*
X15828767Y-12914094D02*
X15904957Y-12914094D01*
X15857338Y-12847427D02*
X15857338Y-13018856D01*
X15866862Y-13037903D01*
X15885910Y-13047427D01*
X15904957Y-13047427D01*
X16047814Y-13037903D02*
X16028767Y-13047427D01*
X15990671Y-13047427D01*
X15971624Y-13037903D01*
X15962100Y-13018856D01*
X15962100Y-12942665D01*
X15971624Y-12923618D01*
X15990671Y-12914094D01*
X16028767Y-12914094D01*
X16047814Y-12923618D01*
X16057338Y-12942665D01*
X16057338Y-12961713D01*
X15962100Y-12980760D01*
X16228767Y-13047427D02*
X16228767Y-12847427D01*
X16228767Y-13037903D02*
X16209719Y-13047427D01*
X16171624Y-13047427D01*
X16152576Y-13037903D01*
X16143052Y-13028379D01*
X16133529Y-13009332D01*
X16133529Y-12952189D01*
X16143052Y-12933141D01*
X16152576Y-12923618D01*
X16171624Y-12914094D01*
X16209719Y-12914094D01*
X16228767Y-12923618D01*
X16304957Y-13123618D02*
X16314481Y-13114094D01*
X16333529Y-13085522D01*
X16343052Y-13066475D01*
X16352576Y-13037903D01*
X16362100Y-12990284D01*
X16362100Y-12952189D01*
X16352576Y-12904570D01*
X16343052Y-12875999D01*
X16333529Y-12856951D01*
X16314481Y-12828379D01*
X16304957Y-12818856D01*
X9452100Y-13176951D02*
X9452100Y-13376951D01*
X9352100Y-13276951D02*
X9552100Y-13276951D01*
X9895433Y-13234094D02*
X9895433Y-13367427D01*
X9847814Y-13157903D02*
X9800195Y-13300760D01*
X9924005Y-13300760D01*
X10000195Y-13348379D02*
X10009719Y-13357903D01*
X10000195Y-13367427D01*
X9990672Y-13357903D01*
X10000195Y-13348379D01*
X10000195Y-13367427D01*
X10133529Y-13167427D02*
X10152576Y-13167427D01*
X10171624Y-13176951D01*
X10181148Y-13186475D01*
X10190672Y-13205522D01*
X10200195Y-13243618D01*
X10200195Y-13291237D01*
X10190672Y-13329332D01*
X10181148Y-13348379D01*
X10171624Y-13357903D01*
X10152576Y-13367427D01*
X10133529Y-13367427D01*
X10114481Y-13357903D01*
X10104957Y-13348379D01*
X10095433Y-13329332D01*
X10085910Y-13291237D01*
X10085910Y-13243618D01*
X10095433Y-13205522D01*
X10104957Y-13186475D01*
X10114481Y-13176951D01*
X10133529Y-13167427D01*
X10324005Y-13167427D02*
X10343052Y-13167427D01*
X10362100Y-13176951D01*
X10371624Y-13186475D01*
X10381148Y-13205522D01*
X10390672Y-13243618D01*
X10390672Y-13291237D01*
X10381148Y-13329332D01*
X10371624Y-13348379D01*
X10362100Y-13357903D01*
X10343052Y-13367427D01*
X10324005Y-13367427D01*
X10304957Y-13357903D01*
X10295433Y-13348379D01*
X10285910Y-13329332D01*
X10276386Y-13291237D01*
X10276386Y-13243618D01*
X10285910Y-13205522D01*
X10295433Y-13186475D01*
X10304957Y-13176951D01*
X10324005Y-13167427D01*
X10514481Y-13167427D02*
X10533529Y-13167427D01*
X10552576Y-13176951D01*
X10562100Y-13186475D01*
X10571624Y-13205522D01*
X10581148Y-13243618D01*
X10581148Y-13291237D01*
X10571624Y-13329332D01*
X10562100Y-13348379D01*
X10552576Y-13357903D01*
X10533529Y-13367427D01*
X10514481Y-13367427D01*
X10495433Y-13357903D01*
X10485910Y-13348379D01*
X10476386Y-13329332D01*
X10466862Y-13291237D01*
X10466862Y-13243618D01*
X10476386Y-13205522D01*
X10485910Y-13186475D01*
X10495433Y-13176951D01*
X10514481Y-13167427D01*
X10666862Y-13367427D02*
X10666862Y-13234094D01*
X10666862Y-13253141D02*
X10676386Y-13243618D01*
X10695433Y-13234094D01*
X10724005Y-13234094D01*
X10743052Y-13243618D01*
X10752576Y-13262665D01*
X10752576Y-13367427D01*
X10752576Y-13262665D02*
X10762100Y-13243618D01*
X10781148Y-13234094D01*
X10809719Y-13234094D01*
X10828767Y-13243618D01*
X10838291Y-13262665D01*
X10838291Y-13367427D01*
X10933529Y-13367427D02*
X10933529Y-13234094D01*
X10933529Y-13253141D02*
X10943052Y-13243618D01*
X10962100Y-13234094D01*
X10990672Y-13234094D01*
X11009719Y-13243618D01*
X11019243Y-13262665D01*
X11019243Y-13367427D01*
X11019243Y-13262665D02*
X11028767Y-13243618D01*
X11047814Y-13234094D01*
X11076386Y-13234094D01*
X11095433Y-13243618D01*
X11104957Y-13262665D01*
X11104957Y-13367427D01*
X11495433Y-13157903D02*
X11324005Y-13415046D01*
X11752576Y-13167427D02*
X11771624Y-13167427D01*
X11790671Y-13176951D01*
X11800195Y-13186475D01*
X11809719Y-13205522D01*
X11819243Y-13243618D01*
X11819243Y-13291237D01*
X11809719Y-13329332D01*
X11800195Y-13348379D01*
X11790671Y-13357903D01*
X11771624Y-13367427D01*
X11752576Y-13367427D01*
X11733529Y-13357903D01*
X11724005Y-13348379D01*
X11714481Y-13329332D01*
X11704957Y-13291237D01*
X11704957Y-13243618D01*
X11714481Y-13205522D01*
X11724005Y-13186475D01*
X11733529Y-13176951D01*
X11752576Y-13167427D01*
X11904957Y-13348379D02*
X11914481Y-13357903D01*
X11904957Y-13367427D01*
X11895433Y-13357903D01*
X11904957Y-13348379D01*
X11904957Y-13367427D01*
X12104957Y-13367427D02*
X11990671Y-13367427D01*
X12047814Y-13367427D02*
X12047814Y-13167427D01*
X12028767Y-13195999D01*
X12009719Y-13215046D01*
X11990671Y-13224570D01*
X12285910Y-13167427D02*
X12190671Y-13167427D01*
X12181148Y-13262665D01*
X12190671Y-13253141D01*
X12209719Y-13243618D01*
X12257338Y-13243618D01*
X12276386Y-13253141D01*
X12285910Y-13262665D01*
X12295433Y-13281713D01*
X12295433Y-13329332D01*
X12285910Y-13348379D01*
X12276386Y-13357903D01*
X12257338Y-13367427D01*
X12209719Y-13367427D01*
X12190671Y-13357903D01*
X12181148Y-13348379D01*
X12362100Y-13167427D02*
X12495433Y-13167427D01*
X12409719Y-13367427D01*
X12666862Y-13167427D02*
X12571624Y-13167427D01*
X12562100Y-13262665D01*
X12571624Y-13253141D01*
X12590671Y-13243618D01*
X12638290Y-13243618D01*
X12657338Y-13253141D01*
X12666862Y-13262665D01*
X12676386Y-13281713D01*
X12676386Y-13329332D01*
X12666862Y-13348379D01*
X12657338Y-13357903D01*
X12638290Y-13367427D01*
X12590671Y-13367427D01*
X12571624Y-13357903D01*
X12562100Y-13348379D01*
X12752576Y-13167427D02*
X12752576Y-13205522D01*
X12828767Y-13167427D02*
X12828767Y-13205522D01*
X13124005Y-13443618D02*
X13114481Y-13434094D01*
X13095433Y-13405522D01*
X13085910Y-13386475D01*
X13076386Y-13357903D01*
X13066862Y-13310284D01*
X13066862Y-13272189D01*
X13076386Y-13224570D01*
X13085910Y-13195999D01*
X13095433Y-13176951D01*
X13114481Y-13148379D01*
X13124005Y-13138856D01*
X13190671Y-13186475D02*
X13200195Y-13176951D01*
X13219243Y-13167427D01*
X13266862Y-13167427D01*
X13285910Y-13176951D01*
X13295433Y-13186475D01*
X13304957Y-13205522D01*
X13304957Y-13224570D01*
X13295433Y-13253141D01*
X13181148Y-13367427D01*
X13304957Y-13367427D01*
X13543052Y-13367427D02*
X13543052Y-13167427D01*
X13628767Y-13367427D02*
X13628767Y-13262665D01*
X13619243Y-13243618D01*
X13600195Y-13234094D01*
X13571624Y-13234094D01*
X13552576Y-13243618D01*
X13543052Y-13253141D01*
X13752576Y-13367427D02*
X13733529Y-13357903D01*
X13724005Y-13348379D01*
X13714481Y-13329332D01*
X13714481Y-13272189D01*
X13724005Y-13253141D01*
X13733529Y-13243618D01*
X13752576Y-13234094D01*
X13781148Y-13234094D01*
X13800195Y-13243618D01*
X13809719Y-13253141D01*
X13819243Y-13272189D01*
X13819243Y-13329332D01*
X13809719Y-13348379D01*
X13800195Y-13357903D01*
X13781148Y-13367427D01*
X13752576Y-13367427D01*
X13933529Y-13367427D02*
X13914481Y-13357903D01*
X13904957Y-13338856D01*
X13904957Y-13167427D01*
X14085910Y-13357903D02*
X14066862Y-13367427D01*
X14028767Y-13367427D01*
X14009719Y-13357903D01*
X14000195Y-13338856D01*
X14000195Y-13262665D01*
X14009719Y-13243618D01*
X14028767Y-13234094D01*
X14066862Y-13234094D01*
X14085910Y-13243618D01*
X14095433Y-13262665D01*
X14095433Y-13281713D01*
X14000195Y-13300760D01*
X14171624Y-13357903D02*
X14190671Y-13367427D01*
X14228767Y-13367427D01*
X14247814Y-13357903D01*
X14257338Y-13338856D01*
X14257338Y-13329332D01*
X14247814Y-13310284D01*
X14228767Y-13300760D01*
X14200195Y-13300760D01*
X14181148Y-13291237D01*
X14171624Y-13272189D01*
X14171624Y-13262665D01*
X14181148Y-13243618D01*
X14200195Y-13234094D01*
X14228767Y-13234094D01*
X14247814Y-13243618D01*
X14324005Y-13443618D02*
X14333529Y-13434094D01*
X14352576Y-13405522D01*
X14362100Y-13386475D01*
X14371624Y-13357903D01*
X14381148Y-13310284D01*
X14381148Y-13272189D01*
X14371624Y-13224570D01*
X14362100Y-13195999D01*
X14352576Y-13176951D01*
X14333529Y-13148379D01*
X14324005Y-13138856D01*
X14685910Y-13443618D02*
X14676386Y-13434094D01*
X14657338Y-13405522D01*
X14647814Y-13386475D01*
X14638290Y-13357903D01*
X14628767Y-13310284D01*
X14628767Y-13272189D01*
X14638290Y-13224570D01*
X14647814Y-13195999D01*
X14657338Y-13176951D01*
X14676386Y-13148379D01*
X14685910Y-13138856D01*
X14762100Y-13234094D02*
X14762100Y-13367427D01*
X14762100Y-13253141D02*
X14771624Y-13243618D01*
X14790671Y-13234094D01*
X14819243Y-13234094D01*
X14838290Y-13243618D01*
X14847814Y-13262665D01*
X14847814Y-13367427D01*
X14971624Y-13367427D02*
X14952576Y-13357903D01*
X14943052Y-13348379D01*
X14933529Y-13329332D01*
X14933529Y-13272189D01*
X14943052Y-13253141D01*
X14952576Y-13243618D01*
X14971624Y-13234094D01*
X15000195Y-13234094D01*
X15019243Y-13243618D01*
X15028767Y-13253141D01*
X15038290Y-13272189D01*
X15038290Y-13329332D01*
X15028767Y-13348379D01*
X15019243Y-13357903D01*
X15000195Y-13367427D01*
X14971624Y-13367427D01*
X15095433Y-13234094D02*
X15171624Y-13234094D01*
X15124005Y-13167427D02*
X15124005Y-13338856D01*
X15133529Y-13357903D01*
X15152576Y-13367427D01*
X15171624Y-13367427D01*
X15390671Y-13234094D02*
X15390671Y-13434094D01*
X15390671Y-13243618D02*
X15409719Y-13234094D01*
X15447814Y-13234094D01*
X15466862Y-13243618D01*
X15476386Y-13253141D01*
X15485910Y-13272189D01*
X15485910Y-13329332D01*
X15476386Y-13348379D01*
X15466862Y-13357903D01*
X15447814Y-13367427D01*
X15409719Y-13367427D01*
X15390671Y-13357903D01*
X15600195Y-13367427D02*
X15581148Y-13357903D01*
X15571624Y-13338856D01*
X15571624Y-13167427D01*
X15762100Y-13367427D02*
X15762100Y-13262665D01*
X15752576Y-13243618D01*
X15733529Y-13234094D01*
X15695433Y-13234094D01*
X15676386Y-13243618D01*
X15762100Y-13357903D02*
X15743052Y-13367427D01*
X15695433Y-13367427D01*
X15676386Y-13357903D01*
X15666862Y-13338856D01*
X15666862Y-13319808D01*
X15676386Y-13300760D01*
X15695433Y-13291237D01*
X15743052Y-13291237D01*
X15762100Y-13281713D01*
X15828767Y-13234094D02*
X15904957Y-13234094D01*
X15857338Y-13167427D02*
X15857338Y-13338856D01*
X15866862Y-13357903D01*
X15885910Y-13367427D01*
X15904957Y-13367427D01*
X16047814Y-13357903D02*
X16028767Y-13367427D01*
X15990671Y-13367427D01*
X15971624Y-13357903D01*
X15962100Y-13338856D01*
X15962100Y-13262665D01*
X15971624Y-13243618D01*
X15990671Y-13234094D01*
X16028767Y-13234094D01*
X16047814Y-13243618D01*
X16057338Y-13262665D01*
X16057338Y-13281713D01*
X15962100Y-13300760D01*
X16228767Y-13367427D02*
X16228767Y-13167427D01*
X16228767Y-13357903D02*
X16209719Y-13367427D01*
X16171624Y-13367427D01*
X16152576Y-13357903D01*
X16143052Y-13348379D01*
X16133529Y-13329332D01*
X16133529Y-13272189D01*
X16143052Y-13253141D01*
X16152576Y-13243618D01*
X16171624Y-13234094D01*
X16209719Y-13234094D01*
X16228767Y-13243618D01*
X16304957Y-13443618D02*
X16314481Y-13434094D01*
X16333529Y-13405522D01*
X16343052Y-13386475D01*
X16352576Y-13357903D01*
X16362100Y-13310284D01*
X16362100Y-13272189D01*
X16352576Y-13224570D01*
X16343052Y-13195999D01*
X16333529Y-13176951D01*
X16314481Y-13148379D01*
X16304957Y-13138856D01*
M02*
