%TF.GenerationSoftware,KiCad,Pcbnew,(6.0.11)*%
%TF.CreationDate,2024-03-01T18:21:46+00:00*%
%TF.ProjectId,BT66B_RJ45_JB,42543636-425f-4524-9a34-355f4a422e6b,rev?*%
%TF.SameCoordinates,Original*%
%TF.FileFunction,Copper,L1,Top*%
%TF.FilePolarity,Positive*%
%FSLAX46Y46*%
G04 Gerber Fmt 4.6, Leading zero omitted, Abs format (unit mm)*
G04 Created by KiCad (PCBNEW (6.0.11)) date 2024-03-01 18:21:46*
%MOMM*%
%LPD*%
G01*
G04 APERTURE LIST*
%TA.AperFunction,ComponentPad*%
%ADD10C,1.500000*%
%TD*%
%TA.AperFunction,ViaPad*%
%ADD11C,0.800000*%
%TD*%
%TA.AperFunction,Conductor*%
%ADD12C,0.300000*%
%TD*%
G04 APERTURE END LIST*
D10*
%TO.P,J1,1*%
%TO.N,unconnected-(J1-Pad1)*%
X110805000Y-101440000D03*
%TO.P,J1,2*%
%TO.N,unconnected-(J1-Pad2)*%
X109535000Y-98900000D03*
%TO.P,J1,3*%
%TO.N,unconnected-(J1-Pad3)*%
X108265000Y-101440000D03*
%TO.P,J1,4*%
%TO.N,/L1-*%
X106995000Y-98900000D03*
%TO.P,J1,5*%
%TO.N,/L1+*%
X105725000Y-101440000D03*
%TO.P,J1,6*%
%TO.N,unconnected-(J1-Pad6)*%
X104455000Y-98900000D03*
%TO.P,J1,7*%
%TO.N,unconnected-(J1-Pad7)*%
X103185000Y-101440000D03*
%TO.P,J1,8*%
%TO.N,unconnected-(J1-Pad8)*%
X101915000Y-98900000D03*
%TD*%
%TO.P,J5,1*%
%TO.N,/L3+*%
X118038000Y-83931000D03*
%TO.P,J5,2*%
%TO.N,/L3-*%
X115498000Y-85201000D03*
%TO.P,J5,3*%
%TO.N,/L2+*%
X118038000Y-86471000D03*
%TO.P,J5,4*%
%TO.N,/L1-*%
X115498000Y-87741000D03*
%TO.P,J5,5*%
%TO.N,/L1+*%
X118038000Y-89011000D03*
%TO.P,J5,6*%
%TO.N,/L2-*%
X115498000Y-90281000D03*
%TO.P,J5,7*%
%TO.N,/L4+*%
X118038000Y-91551000D03*
%TO.P,J5,8*%
%TO.N,/L4-*%
X115498000Y-92821000D03*
%TD*%
%TO.P,J3,1*%
%TO.N,unconnected-(J3-Pad1)*%
X157305000Y-101440000D03*
%TO.P,J3,2*%
%TO.N,unconnected-(J3-Pad2)*%
X156035000Y-98900000D03*
%TO.P,J3,3*%
%TO.N,unconnected-(J3-Pad3)*%
X154765000Y-101440000D03*
%TO.P,J3,4*%
%TO.N,/L3-*%
X153495000Y-98900000D03*
%TO.P,J3,5*%
%TO.N,/L3+*%
X152225000Y-101440000D03*
%TO.P,J3,6*%
%TO.N,unconnected-(J3-Pad6)*%
X150955000Y-98900000D03*
%TO.P,J3,7*%
%TO.N,unconnected-(J3-Pad7)*%
X149685000Y-101440000D03*
%TO.P,J3,8*%
%TO.N,unconnected-(J3-Pad8)*%
X148415000Y-98900000D03*
%TD*%
%TO.P,J4,1*%
%TO.N,unconnected-(J4-Pad1)*%
X184805000Y-101440000D03*
%TO.P,J4,2*%
%TO.N,unconnected-(J4-Pad2)*%
X183535000Y-98900000D03*
%TO.P,J4,3*%
%TO.N,unconnected-(J4-Pad3)*%
X182265000Y-101440000D03*
%TO.P,J4,4*%
%TO.N,/L4-*%
X180995000Y-98900000D03*
%TO.P,J4,5*%
%TO.N,/L4+*%
X179725000Y-101440000D03*
%TO.P,J4,6*%
%TO.N,unconnected-(J4-Pad6)*%
X178455000Y-98900000D03*
%TO.P,J4,7*%
%TO.N,unconnected-(J4-Pad7)*%
X177185000Y-101440000D03*
%TO.P,J4,8*%
%TO.N,unconnected-(J4-Pad8)*%
X175915000Y-98900000D03*
%TD*%
%TO.P,J2,1*%
%TO.N,unconnected-(J2-Pad1)*%
X138305000Y-101440000D03*
%TO.P,J2,2*%
%TO.N,unconnected-(J2-Pad2)*%
X137035000Y-98900000D03*
%TO.P,J2,3*%
%TO.N,unconnected-(J2-Pad3)*%
X135765000Y-101440000D03*
%TO.P,J2,4*%
%TO.N,/L2-*%
X134495000Y-98900000D03*
%TO.P,J2,5*%
%TO.N,/L2+*%
X133225000Y-101440000D03*
%TO.P,J2,6*%
%TO.N,unconnected-(J2-Pad6)*%
X131955000Y-98900000D03*
%TO.P,J2,7*%
%TO.N,unconnected-(J2-Pad7)*%
X130685000Y-101440000D03*
%TO.P,J2,8*%
%TO.N,unconnected-(J2-Pad8)*%
X129415000Y-98900000D03*
%TD*%
D11*
%TO.N,/L2-*%
X127508000Y-97536000D03*
%TD*%
D12*
%TO.N,/L2-*%
X133131000Y-97536000D02*
X134495000Y-98900000D01*
X127508000Y-97536000D02*
X133131000Y-97536000D01*
%TD*%
M02*
