M48
; DRILL file {KiCad (6.0.11)} date Fri Mar  1 18:21:49 2024
; FORMAT={-:-/ absolute / metric / decimal}
; #@! TF.CreationDate,2024-03-01T18:21:49+00:00
; #@! TF.GenerationSoftware,Kicad,Pcbnew,(6.0.11)
; #@! TF.FileFunction,Plated,1,2,PTH
FMAT,2
METRIC
; #@! TA.AperFunction,Plated,PTH,ViaDrill
T1C0.400
; #@! TA.AperFunction,Plated,PTH,ComponentDrill
T2C0.900
%
G90
G05
T1
X127.508Y-97.536
T2
X101.915Y-98.9
X103.185Y-101.44
X104.455Y-98.9
X105.725Y-101.44
X106.995Y-98.9
X108.265Y-101.44
X109.535Y-98.9
X110.805Y-101.44
X115.498Y-85.201
X115.498Y-87.741
X115.498Y-90.281
X115.498Y-92.821
X118.038Y-83.931
X118.038Y-86.471
X118.038Y-89.011
X118.038Y-91.551
X129.415Y-98.9
X130.685Y-101.44
X131.955Y-98.9
X133.225Y-101.44
X134.495Y-98.9
X135.765Y-101.44
X137.035Y-98.9
X138.305Y-101.44
X148.415Y-98.9
X149.685Y-101.44
X150.955Y-98.9
X152.225Y-101.44
X153.495Y-98.9
X154.765Y-101.44
X156.035Y-98.9
X157.305Y-101.44
X175.915Y-98.9
X177.185Y-101.44
X178.455Y-98.9
X179.725Y-101.44
X180.995Y-98.9
X182.265Y-101.44
X183.535Y-98.9
X184.805Y-101.44
T0
M30
